<svg width="142" height="142" viewBox="0 0 142 142" fill="none" xmlns="http://www.w3.org/2000/svg">
<path d="M17.5619 24.6244C17.2755 24.8081 17.0048 25.0267 16.7499 25.28L3.01156 39.1053C1.0979 41.0348 0.0160814 43.6449 0.000177843 46.3709C-0.0157257 49.097 1.03556 51.7197 2.92658 53.6717L3.01628 53.7667L3.44118 54.237L5.07467 56.0139C6.49099 57.5484 8.52577 59.7576 11.0374 62.4467C17.464 69.3373 23.9621 76.16 30.5307 82.9137C45.4871 98.2735 63.4507 115.847 74.1534 123.088C86.2063 131.278 97.1592 135.891 105.157 138.462C109.16 139.745 112.418 140.524 114.717 140.98C115.856 141.207 117.003 141.399 118.154 141.555L118.319 141.574C121.506 142.082 124.324 142.172 126.831 141.645C129.299 141.156 131.563 139.933 133.332 138.134L136.637 134.808C136.882 134.561 137.096 134.294 137.279 134.005C138.768 132.645 139.957 130.986 140.77 129.135C141.584 127.284 142.002 125.282 142 123.259C141.448 117.116 135.688 113.567 130.589 110.431C128.021 109.154 125.73 107.378 123.847 105.205L120.094 96.3874H120.127C121.442 96.3874 122.703 95.8618 123.632 94.9263C124.562 93.9908 125.084 92.7219 125.084 91.3989C125.084 90.0759 124.562 88.807 123.632 87.8715C122.703 86.936 121.442 86.4104 120.127 86.4104H115.845L112.805 79.265C113.878 78.8366 114.769 78.0448 115.324 77.0262C115.879 76.0075 116.063 74.8259 115.845 73.6851C115.626 72.5444 115.019 71.516 114.128 70.7775C113.237 70.0389 112.118 69.6365 110.964 69.6396H108.707L106.195 63.7437C107.492 63.687 108.715 63.1208 109.601 62.1667C110.488 61.2126 110.967 59.9468 110.936 58.6411C110.905 57.3354 110.366 56.094 109.436 55.1835C108.505 54.273 107.257 53.766 105.959 53.7715H101.951L100.011 49.2105C99.718 48.4979 99.5386 47.9848 99.3876 47.5477C98.7578 45.4723 97.5835 43.6062 95.9884 42.1459L93.5334 39.6707C92.4018 38.5751 91.033 37.7587 89.5347 37.2857V35.1478C86.584 26.1922 75.82 23.0709 68.6014 28.5202L58.555 18.2106C59.4582 17.2933 60.1724 16.2054 60.6565 15.0094C61.1406 13.8135 61.3851 12.533 61.3759 11.2417C61.3667 9.9503 61.104 8.67351 60.6028 7.48465C60.1017 6.2958 59.3721 5.21832 58.4559 4.31414C55.7011 1.55134 51.9705 0 48.0813 0C44.1921 0 40.4615 1.55134 37.7067 4.31414L17.5619 24.6244ZM62.2327 68.2381L62.2469 64.6986C62.2469 56.622 59.131 48.9255 53.5601 43.1768L33.2123 22.2917L44.3776 11.0415C44.879 10.5349 45.4821 10.1417 46.1466 9.88835C46.811 9.63497 47.5215 9.52716 48.2307 9.57213C48.9398 9.61709 49.6313 9.8138 50.2588 10.1491C50.8864 10.4844 51.4357 10.9506 51.87 11.5166C50.0606 13.3469 49.0449 15.8237 49.0449 18.4054C49.0449 20.9872 50.0606 23.464 51.87 25.2943L72.7843 46.398C74.6734 48.2304 77.1949 49.2542 79.8187 49.2542C82.4425 49.2542 84.964 48.2304 86.8531 46.398L89.3081 48.8685C89.8806 49.3237 90.2873 49.9568 90.4647 50.6691L90.4789 50.7166C90.6819 51.3057 90.9321 52.0184 91.3287 52.9448L91.6781 53.7715H87.2214C84.4831 53.7715 82.2642 56.0044 82.2642 58.7599C82.2765 60.0791 82.8028 61.3408 83.7297 62.2736C84.6567 63.2065 85.9105 63.736 87.2214 63.7484H95.927L98.4339 69.6396H94.7279C91.9896 69.6396 89.7707 71.8725 89.7707 74.6281C89.7831 75.9473 90.3093 77.2089 91.2363 78.1418C92.1632 79.0746 93.417 79.6042 94.7279 79.6166H102.683L105.572 86.4104H100.96C98.2215 86.4104 96.0026 88.6434 96.0026 91.3989C96.0026 92.7767 96.5691 94.0119 97.4661 94.9146C98.3631 95.8173 99.5906 96.3399 100.96 96.3874H109.821L115.17 108.958C117.643 113.134 121.306 116.464 125.684 118.517L125.698 118.527C128.073 119.985 132.487 122.693 132.605 124.047C132.605 124.313 132.345 125.126 131.165 126.456C123.096 125.443 115.176 123.462 107.574 120.555C93.6845 115.177 79.3277 105.623 73.9693 88.7194L73.9646 88.7099C72.0526 82.7237 67.7422 75.7541 62.7473 68.9317L62.2327 68.2381ZM9.67772 47.0299C9.56076 46.8857 9.49688 46.7053 9.49688 46.5191C9.49688 46.333 9.56076 46.1526 9.67772 46.0084L20.2293 35.3853C21.1767 36.3197 22.2783 37.4171 23.5341 38.6777C28.744 43.9214 33.8301 49.2883 38.7879 54.7739C44.4909 61.0927 50.3403 68.0053 55.1511 74.5711C60.0327 81.2367 63.5593 87.1706 64.9804 91.6127C65.199 92.3064 65.4319 92.9954 65.6791 93.6794L9.68716 47.0394L9.67772 47.0299Z" fill="black"/>
</svg>
